<?xml version="1.0" standalone="no"?>
<!DOCTYPE svg PUBLIC "-//W3C//DTD SVG 20010904//EN"
 "http://www.w3.org/TR/2001/REC-SVG-20010904/DTD/svg10.dtd">
<svg version="1.0" xmlns="http://www.w3.org/2000/svg"
 width="512.000000pt" height="512.000000pt" viewBox="0 0 512.000000 512.000000"
 preserveAspectRatio="xMidYMid meet">
<metadata>
Created by potrace 1.11, written by Peter Selinger 2001-2013
</metadata>
<g transform="translate(0.000000,512.000000) scale(0.100000,-0.100000)"
fill="#000000" stroke="none">
<path d="M1080 4789 c-94 -19 -172 -102 -191 -202 -6 -36 -9 -233 -7 -545 3
-536 1 -520 67 -595 18 -19 53 -46 79 -59 l47 -23 645 0 645 0 47 23 c26 13
61 40 79 59 66 76 64 54 64 633 l0 525 -23 47 c-13 26 -40 61 -59 79 -77 67
-44 64 -728 66 -341 1 -640 -3 -665 -8z"/>
<path d="M3474 4692 c-17 -10 -174 -286 -174 -304 0 -8 8 -22 18 -31 16 -14
44 -17 184 -17 147 0 167 2 181 18 10 10 17 24 17 32 0 14 -121 228 -157 278
-23 31 -46 39 -69 24z"/>
<path d="M3025 4184 c-71 -41 -138 -83 -149 -94 -38 -37 -17 -60 136 -148 79
-45 151 -82 160 -82 9 0 24 7 32 16 13 13 16 44 16 183 0 150 -2 170 -18 184
-10 10 -25 17 -33 17 -8 0 -72 -34 -144 -76z"/>
<path d="M3325 4235 c-24 -23 -25 -28 -25 -175 0 -147 1 -152 25 -175 23 -24
28 -25 175 -25 147 0 152 1 175 25 24 23 25 28 25 175 0 147 -1 152 -25 175
-23 24 -28 25 -175 25 -147 0 -152 -1 -175 -25z"/>
<path d="M3796 4244 c-13 -13 -16 -44 -16 -183 0 -150 2 -170 18 -184 10 -10
24 -17 32 -17 16 0 254 136 287 165 48 40 30 61 -129 153 -79 45 -151 82 -160
82 -9 0 -24 -7 -32 -16z"/>
<path d="M3317 3762 c-10 -10 -17 -24 -17 -32 0 -16 136 -254 165 -287 40 -48
61 -30 153 129 45 79 82 151 82 160 0 9 -7 24 -16 32 -13 13 -44 16 -183 16
-150 0 -170 -2 -184 -18z"/>
<path d="M1389 2996 c-125 -44 -198 -147 -199 -276 0 -115 58 -207 162 -259
194 -97 418 42 418 260 0 133 -93 252 -222 283 l-27 6 -3 -116 c-3 -99 -6
-119 -20 -128 -13 -8 -23 -8 -35 0 -15 9 -18 29 -21 128 -1 64 -6 116 -10 116
-4 -1 -23 -7 -43 -14z"/>
<path d="M2453 2994 c-58 -21 -126 -85 -157 -146 -33 -66 -36 -180 -7 -244 27
-60 84 -119 144 -148 73 -37 181 -37 254 0 106 52 162 144 163 265 0 92 -29
159 -96 218 -38 33 -115 71 -146 71 -4 0 -8 -52 -8 -115 0 -104 -2 -115 -20
-125 -14 -8 -26 -8 -40 0 -18 10 -20 21 -20 125 0 127 2 123 -67 99z"/>
<path d="M3549 2996 c-125 -44 -198 -147 -199 -276 0 -115 58 -207 162 -259
194 -97 418 42 418 260 0 133 -93 252 -222 283 l-27 6 -3 -116 c-3 -99 -6
-119 -20 -128 -13 -8 -23 -8 -35 0 -15 9 -18 29 -21 128 -1 64 -6 116 -10 116
-4 -1 -23 -7 -43 -14z"/>
<path d="M865 1976 c-60 -28 -97 -66 -124 -126 -20 -44 -21 -63 -21 -690 0
-701 0 -702 56 -812 36 -71 132 -169 203 -207 121 -64 34 -61 1581 -61 1547 0
1460 -3 1581 61 71 38 167 136 203 207 56 110 56 111 56 812 0 627 -1 646 -21
690 -27 60 -64 98 -124 126 l-50 24 -1645 0 -1645 0 -50 -24z"/>
</g>
</svg>
