<?xml version="1.0" standalone="no"?>
<!DOCTYPE svg PUBLIC "-//W3C//DTD SVG 20010904//EN"
 "http://www.w3.org/TR/2001/REC-SVG-20010904/DTD/svg10.dtd">
<svg version="1.0" xmlns="http://www.w3.org/2000/svg"
 width="260.000000pt" height="260.000000pt" viewBox="0 0 260.000000 260.000000"
 preserveAspectRatio="xMidYMid meet">
<metadata>
Created by potrace 1.11, written by Peter Selinger 2001-2013
</metadata>
<g transform="translate(0.000000,260.000000) scale(0.100000,-0.100000)"
fill="#000000" stroke="none">
<path d="M1508 2250 c-26 -10 -50 -15 -54 -11 -4 3 -4 0 0 -6 4 -8 1 -13 -8
-13 -9 0 -16 -3 -16 -7 0 -5 -13 -17 -29 -28 -16 -10 -27 -23 -25 -27 3 -4 1
-8 -3 -8 -5 0 -15 -16 -22 -35 -7 -19 -17 -35 -22 -35 -5 0 -8 -3 -7 -7 5 -16
-32 -92 -54 -114 -13 -12 -16 -19 -8 -14 8 4 2 -4 -14 -19 -16 -14 -25 -26
-20 -26 5 0 2 -5 -8 -10 -10 -6 -15 -20 -13 -35 1 -14 -1 -25 -5 -25 -13 0 -6
-55 8 -65 10 -8 9 -11 -7 -11 -11 0 -17 4 -15 8 3 4 1 8 -5 8 -5 0 -13 -5 -16
-10 -4 -6 -10 -8 -15 -5 -6 4 -13 -7 -24 -45 -1 -3 -5 -11 -9 -18 -5 -7 -3
-14 6 -18 12 -4 9 -17 -19 -65 -18 -33 -34 -63 -35 -67 -1 -4 -4 -15 -7 -24
-2 -10 -9 -18 -15 -18 -6 0 -8 -3 -4 -6 3 -3 -3 -22 -14 -41 -11 -19 -17 -38
-14 -44 4 -5 1 -9 -5 -9 -6 0 -8 -4 -5 -10 3 -5 1 -19 -6 -31 -6 -12 -7 -19
-2 -16 5 3 15 -8 22 -24 7 -17 20 -29 31 -29 10 0 21 -6 23 -12 4 -9 6 -10 6
-1 1 7 11 10 28 7 15 -3 24 -2 20 2 -4 4 2 14 14 22 19 13 44 59 41 75 -1 4 2
7 7 7 9 0 35 58 32 73 0 4 3 7 8 7 14 0 22 -29 10 -36 -6 -3 -8 -12 -5 -20 3
-8 1 -14 -5 -14 -6 0 -7 -4 -4 -10 3 -5 1 -10 -5 -10 -6 0 -9 -4 -5 -9 3 -5
-1 -15 -8 -23 -8 -7 -12 -18 -10 -24 2 -6 -3 -17 -12 -24 -8 -7 -15 -21 -15
-31 0 -10 -5 -21 -10 -24 -6 -4 -8 -11 -5 -16 4 -5 1 -9 -4 -9 -6 0 -11 -9
-11 -21 0 -13 -4 -18 -12 -13 -6 4 -8 3 -4 -4 3 -6 -3 -27 -14 -47 -11 -20
-18 -40 -15 -46 4 -5 1 -9 -4 -9 -6 0 -11 -7 -11 -15 0 -8 -5 -15 -11 -15 -5
0 -8 -4 -4 -9 3 -5 1 -12 -4 -15 -5 -4 -15 -23 -22 -44 -6 -20 -16 -40 -21
-43 -5 -3 -10 -14 -12 -25 -2 -10 -11 -32 -20 -49 -9 -16 -16 -36 -16 -42 0
-7 -4 -13 -10 -13 -5 0 -10 -9 -10 -19 0 -11 -6 -26 -13 -33 -7 -7 -14 -16
-15 -20 -4 -15 -5 -18 -7 -25 -2 -5 -6 -18 -10 -30 -4 -13 -11 -23 -16 -23 -5
0 -8 -3 -7 -7 2 -12 -14 -47 -26 -55 -7 -5 -7 -8 2 -8 8 0 6 -8 -7 -22 -11
-11 -18 -25 -15 -30 3 -4 0 -8 -5 -8 -6 0 -10 -3 -10 -8 4 -21 -2 -32 -13 -26
-8 5 -8 2 1 -10 11 -13 11 -16 2 -14 -8 2 -15 -8 -17 -22 -3 -14 -9 -26 -14
-28 -6 -2 -10 -22 -10 -43 0 -22 4 -38 8 -35 5 3 18 -2 28 -12 19 -16 31 -21
63 -26 13 -2 55 31 56 44 1 3 9 21 20 40 11 19 19 39 20 43 0 4 7 12 15 17 8
5 11 10 7 10 -4 0 -2 10 5 22 7 13 11 26 10 30 -1 5 3 8 10 8 6 0 8 3 5 6 -3
4 2 18 13 32 11 13 18 28 15 32 -3 4 2 10 10 14 8 3 15 14 15 25 0 11 7 26 15
35 8 8 15 19 15 24 0 13 52 106 62 110 4 2 5 8 2 14 -4 6 -3 13 2 17 5 3 26
41 47 83 21 43 45 84 53 93 9 9 11 15 4 15 -7 0 -5 6 4 16 9 8 16 22 16 30 0
9 5 12 12 8 7 -5 9 -2 5 9 -3 8 1 21 8 27 8 7 12 16 9 21 -3 5 -1 9 4 9 8 0
21 27 26 53 0 4 7 11 14 16 8 5 13 11 13 15 -3 20 0 26 9 21 5 -3 7 0 4 8 -3
8 2 22 11 30 9 9 16 19 15 22 -1 21 1 25 10 20 6 -4 10 -3 9 2 -4 17 13 63 22
57 5 -3 6 2 3 10 -3 9 -1 16 5 16 6 0 11 7 11 15 0 8 4 15 9 15 5 0 12 7 15
16 6 15 4 15 -11 3 -11 -8 -10 -4 4 11 12 14 23 32 25 40 2 8 11 23 20 34 10
10 15 23 12 28 -3 4 0 8 6 8 6 0 8 5 5 10 -3 6 -1 10 5 10 6 0 8 5 5 10 -3 6
-2 10 4 10 6 0 7 7 4 17 -4 11 -3 14 5 9 7 -4 13 -2 13 3 1 6 2 15 3 21 0 5 9
19 19 30 9 11 17 24 17 29 0 4 19 7 42 5 25 -2 45 2 50 9 12 19 9 27 -8 27 -8
0 -12 5 -9 10 3 6 3 10 -2 10 -4 0 -20 10 -35 23 -64 54 -73 61 -78 61 -6 1
-35 23 -62 49 -10 9 -21 18 -25 20 -5 1 -7 5 -5 10 1 4 -5 7 -14 7 -14 0 -14
1 0 16 9 8 14 20 11 25 -4 5 -1 9 6 9 7 0 9 3 6 6 -3 4 -1 16 5 28 7 11 12 24
13 27 0 12 35 40 44 35 5 -4 11 -2 13 4 2 6 14 4 31 -5 15 -7 27 -11 27 -8 0
3 8 -1 17 -8 15 -12 16 -12 8 1 -6 11 -3 10 12 -2 11 -10 27 -18 37 -18 10 0
14 -5 10 -12 -4 -6 -3 -8 3 -5 5 3 26 -3 46 -13 21 -11 37 -17 37 -14 0 4 11
-1 24 -9 20 -14 25 -14 30 -2 2 7 0 16 -7 19 -8 3 -7 5 2 5 11 1 10 6 -5 23
-10 12 -13 18 -6 14 6 -4 12 -2 12 3 0 6 -4 11 -9 11 -5 0 -14 14 -21 30 -7
17 -16 30 -21 30 -5 0 -9 7 -9 15 0 8 -5 15 -10 15 -6 0 -22 12 -36 28 -14 15
-23 21 -19 15 3 -7 1 -13 -4 -13 -6 0 -11 4 -11 9 0 10 -54 34 -76 34 -8 0
-14 5 -14 10 0 5 -6 4 -14 -2 -10 -8 -16 -9 -21 -1 -4 7 -12 7 -25 0 -24 -13
-40 -13 -20 0 22 14 1 10 -52 -10z m-135 -392 c-2 -5 0 -8 6 -8 5 0 8 -8 6
-17 -2 -10 -4 -24 -4 -31 -1 -7 -5 -11 -10 -8 -5 3 -12 -1 -15 -10 -3 -8 -10
-12 -16 -9 -5 3 -10 1 -10 -6 0 -8 -4 -8 -15 1 -8 7 -15 9 -15 6 0 -17 -32 26
-36 47 -7 40 55 89 69 55 3 -8 6 -6 6 5 1 16 2 16 19 0 11 -10 17 -21 15 -25z
m-98 -136 c-3 -3 -11 0 -18 7 -9 10 -8 11 6 5 10 -3 15 -9 12 -12z m92 -67 c0
-11 -5 -26 -10 -32 -5 -7 -6 -13 -2 -13 10 0 -15 -29 -34 -40 -10 -5 -23 -3
-35 5 -18 14 -18 14 0 14 44 1 55 5 50 18 -3 7 -2 13 3 13 9 0 7 52 -3 68 -4
7 -12 9 -18 6 -7 -4 -8 -2 -4 4 11 18 54 -18 53 -43z m-163 -40 c11 -8 16 -15
10 -15 -5 0 -18 7 -28 15 -11 8 -16 15 -10 15 5 0 18 -7 28 -15z m53 -22 c0
-9 -4 -10 -14 -2 -7 6 -13 12 -13 14 0 1 6 2 13 2 8 0 14 -6 14 -14z m-347
-1127 c0 -15 -24 -66 -32 -66 -5 0 -6 -4 -3 -10 3 -5 1 -10 -5 -10 -6 0 -8 -5
-5 -11 4 -6 -2 -5 -13 2 -16 10 -18 17 -11 31 6 10 7 23 4 28 -3 6 -1 10 4 10
6 0 11 7 11 15 0 9 9 15 25 15 14 0 25 -2 25 -4z"/>
<path d="M610 1790 c-118 -7 -144 -11 -156 -23 -4 -4 -16 -7 -26 -7 -10 0 -18
-5 -18 -11 0 -6 -7 -8 -16 -5 -8 3 -12 2 -9 -4 3 -6 -1 -10 -9 -10 -9 0 -16
-5 -16 -11 0 -5 -4 -7 -10 -4 -5 3 -10 -1 -10 -9 0 -8 -9 -18 -21 -21 -11 -4
-18 -9 -15 -12 3 -3 -4 -19 -16 -36 -11 -16 -22 -48 -24 -70 -2 -22 -5 -46 -8
-54 -3 -7 -1 -13 4 -13 5 0 7 -6 4 -14 -3 -8 0 -17 5 -21 6 -3 9 -11 6 -16 -4
-5 -1 -9 4 -9 6 0 11 -6 11 -13 0 -7 14 -23 30 -35 17 -13 30 -29 30 -38 0 -8
4 -13 8 -10 5 3 14 -4 22 -14 8 -10 17 -17 22 -14 4 3 8 -2 8 -10 0 -9 5 -16
10 -16 11 0 30 -15 90 -74 22 -21 40 -34 40 -30 0 24 42 -64 43 -90 2 -37 -36
-106 -58 -106 -8 0 -15 -4 -15 -8 0 -7 -12 -9 -82 -16 -16 -1 -28 2 -28 7 0 5
-7 7 -15 3 -8 -3 -15 -1 -15 4 0 6 -5 10 -11 10 -25 0 -42 33 -43 86 0 30 2
55 6 57 4 1 -1 19 -11 40 -9 20 -20 34 -24 30 -4 -3 -7 1 -7 11 0 9 -4 15 -9
11 -5 -3 -12 -1 -16 5 -4 6 -11 7 -17 4 -6 -4 -14 0 -19 7 -5 8 -9 9 -9 4 0
-6 -12 -11 -27 -10 -16 0 -35 -7 -44 -17 -9 -10 -19 -14 -23 -10 -4 4 -7 2 -6
-3 1 -6 1 -12 0 -15 -21 -55 -15 -149 12 -168 10 -7 18 -19 18 -27 0 -7 9 -16
19 -20 11 -3 22 -12 25 -20 3 -8 12 -12 21 -9 9 4 15 0 15 -10 0 -9 6 -13 15
-10 8 3 17 0 20 -8 4 -10 15 -13 32 -10 14 3 23 1 20 -4 -5 -8 41 -12 141 -13
76 -1 92 2 92 13 0 6 5 4 10 -4 8 -12 10 -12 10 -1 0 8 3 12 6 8 3 -3 24 1 46
9 22 7 44 11 49 8 5 -3 8 0 7 8 -2 8 4 12 16 10 11 -2 15 1 11 7 -3 6 -2 11 3
11 5 0 26 16 46 35 21 19 34 35 30 35 -4 0 1 9 11 20 10 11 19 30 19 42 1 13
5 29 10 37 5 8 4 16 -4 21 -9 5 -9 9 -1 14 7 5 8 13 1 25 -6 12 -5 22 2 29 9
9 9 12 0 12 -7 0 -12 9 -12 20 0 11 -4 20 -10 20 -5 0 -10 6 -10 14 0 8 -10
22 -22 31 -13 8 -23 21 -23 28 0 6 -8 12 -17 12 -17 0 -22 4 -92 69 -21 20
-42 36 -46 36 -4 0 -10 7 -14 15 -3 8 -10 15 -15 15 -17 0 -55 45 -68 78 -8
24 -8 32 0 32 7 0 6 4 -3 10 -9 6 -11 10 -3 10 7 0 10 7 7 15 -4 8 -1 15 7 15
7 0 9 3 6 6 -7 7 31 60 41 57 4 0 15 3 25 8 12 7 17 6 17 -3 0 -8 3 -9 8 -3
10 14 32 17 32 4 0 -5 5 -7 11 -4 12 8 49 -22 49 -39 0 -6 7 -23 14 -38 8 -16
11 -28 6 -28 -4 0 -6 -9 -3 -20 3 -11 10 -20 15 -20 5 0 7 -4 3 -9 -3 -5 -1
-12 5 -16 6 -4 8 -9 6 -13 -4 -8 14 -26 30 -29 5 -1 22 -5 38 -9 19 -4 27 -3
23 3 -4 6 1 10 11 10 41 0 52 4 52 19 0 8 4 13 9 9 11 -6 24 28 26 70 1 40
-14 74 -47 106 -15 15 -25 29 -22 32 3 3 -2 4 -13 2 -10 -1 -26 7 -35 19 -11
13 -18 16 -18 7 0 -10 -3 -11 -14 -2 -8 6 -18 11 -22 10 -21 -3 -35 2 -29 11
3 6 5 9 3 8 -2 -1 -55 -5 -118 -8z"/>
<path d="M1938 1752 c-15 -7 -30 -21 -33 -32 -4 -11 -11 -18 -16 -15 -5 4 -9
-1 -9 -10 0 -8 -7 -18 -15 -21 -8 -4 -13 -10 -10 -14 3 -4 -2 -13 -10 -20 -8
-7 -15 -17 -15 -23 0 -5 -8 -16 -17 -24 -10 -8 -12 -12 -5 -8 6 3 12 1 12 -4
0 -6 -4 -11 -8 -11 -4 0 -15 -15 -23 -34 -27 -58 21 -97 59 -48 6 9 12 13 12
9 0 -4 8 1 18 11 11 9 17 20 15 24 -2 3 10 12 27 20 16 7 30 17 30 21 0 5 9 5
20 2 13 -4 20 -2 20 7 0 8 3 9 8 3 4 -6 21 -11 37 -12 58 -2 85 -7 85 -18 0
-6 3 -7 8 0 9 13 52 15 52 3 0 -5 7 -5 18 0 9 5 26 6 37 1 11 -4 14 -8 7 -8
-7 -1 -10 -6 -6 -13 4 -6 3 -8 -4 -4 -6 3 -25 -7 -41 -23 -17 -17 -31 -28 -31
-24 0 3 -11 -6 -24 -20 -13 -14 -27 -23 -30 -20 -3 4 -6 -1 -6 -11 0 -9 -4
-15 -9 -11 -6 3 -15 -4 -21 -16 -7 -11 -14 -19 -16 -16 -3 3 -19 -8 -35 -24
-16 -16 -34 -29 -40 -29 -6 0 -7 -4 -4 -10 3 -5 -1 -10 -9 -10 -9 0 -16 -5
-16 -12 0 -6 -3 -8 -6 -5 -4 3 -15 -5 -26 -18 -11 -14 -24 -23 -29 -20 -5 4
-9 -1 -9 -10 0 -9 -4 -13 -10 -10 -5 3 -10 1 -10 -5 0 -6 -5 -8 -12 -4 -7 4
-8 3 -4 -4 4 -7 -3 -17 -18 -23 -14 -7 -23 -16 -20 -20 3 -5 -1 -9 -9 -9 -7 0
-35 -21 -62 -47 -27 -27 -43 -39 -35 -28 8 11 -15 -9 -51 -45 -36 -36 -63 -68
-62 -72 2 -4 -1 -16 -7 -27 -10 -19 -1 -33 23 -37 4 -1 8 -2 10 -4 9 -7 37 -6
37 2 0 5 9 6 21 3 15 -5 19 -4 15 4 -6 10 6 15 27 12 4 0 7 4 7 10 0 5 4 8 9
4 5 -3 13 0 16 6 4 5 13 8 21 5 8 -3 14 -2 14 2 0 5 11 8 25 8 14 0 25 -5 25
-10 0 -6 5 -4 10 4 7 11 10 11 10 2 0 -7 4 -11 10 -7 5 3 17 2 27 -3 10 -5 37
-18 61 -30 23 -11 40 -16 37 -11 -4 5 1 6 9 3 9 -3 14 -9 11 -14 -2 -4 7 -6
20 -4 14 1 25 -1 25 -5 0 -12 69 -12 91 0 16 8 20 8 14 -1 -4 -7 6 -5 24 4 17
9 31 13 31 9 0 -5 4 -3 8 2 4 6 24 21 44 35 20 13 35 27 32 31 -2 4 3 9 11 12
18 8 68 104 60 117 -4 6 0 10 7 10 9 0 9 3 -2 10 -14 9 -7 15 14 11 5 -1 4 5
-3 13 -8 9 -11 25 -8 37 3 12 0 22 -9 26 -8 3 -11 9 -8 14 3 5 -2 6 -10 3 -8
-3 -24 -1 -35 5 -13 8 -22 8 -26 1 -4 -6 -10 -8 -15 -5 -4 3 -11 -2 -14 -11
-4 -10 -2 -13 6 -8 7 5 8 3 2 -7 -14 -23 -16 -59 -2 -59 9 0 9 -3 0 -12 -7 -7
-12 -20 -12 -31 0 -10 -4 -15 -10 -12 -5 3 -10 2 -10 -4 0 -5 -9 -9 -20 -8
-11 1 -20 5 -20 9 0 4 -5 8 -11 8 -5 0 -7 -4 -4 -10 3 -6 -1 -7 -9 -4 -9 3
-16 9 -16 13 0 4 -12 8 -27 9 -15 1 -29 5 -32 10 -3 4 -17 8 -31 10 -13 1 -28
8 -32 15 -6 9 -8 9 -8 0 0 -7 -7 -13 -16 -13 -9 0 -12 5 -8 13 6 9 4 9 -7 1
-8 -6 -29 -11 -47 -10 -24 1 -31 -3 -27 -13 4 -11 3 -12 -10 -1 -17 14 -11 30
11 30 8 0 17 7 20 15 4 8 11 15 16 15 6 0 23 14 38 30 15 17 33 30 39 30 6 0
10 3 10 8 -3 19 2 25 11 12 6 -10 10 -11 10 -2 0 14 80 88 92 84 4 -1 8 3 8 9
0 5 4 7 10 4 6 -3 7 1 4 9 -4 10 -1 16 7 16 8 0 29 16 47 35 18 20 37 33 42
30 6 -3 10 0 10 7 1 7 17 27 36 43 20 17 54 47 75 68 21 20 43 37 48 37 5 0
12 9 16 20 3 11 12 19 18 17 7 -1 11 3 10 10 -2 6 6 15 17 18 11 4 18 11 15
16 -4 5 -1 9 5 9 6 0 8 5 3 13 -4 6 -9 21 -10 32 -5 26 -22 35 -49 25 -12 -5
-25 -6 -28 -3 -3 4 -6 1 -6 -5 0 -7 -3 -11 -7 -10 -14 2 -67 -14 -82 -26 -12
-9 -13 -8 -6 4 7 12 6 13 -6 4 -11 -8 -114 -12 -114 -4 0 1 -13 4 -30 6 -16 3
-35 9 -41 15 -6 5 -13 6 -16 4 -3 -3 -18 0 -34 6 -41 16 -124 17 -156 1z"/>
</g>
</svg>
